PathFileType  4	(X/Y/Z) c:\opencap-core-main\examples\Data\81a20db3-8b24-463d-8a5a-854c37a24678\MarkerData\PreAugmentation
DataRate	CameraRate	NumFrames	NumMarkers	Units	OrigDataRate	OrigDataStartFrame	OrigNumFrames
60.0	60.0	15	20	m	60.0	1	592
Frame#	Time	Neck			RShoulder			RElbow			RWrist			LShoulder			LElbow			LWrist			midHip			RHip			RKnee			RAnkle			LHip			LKnee			LAnkle			LBigToe			LSmallToe			LHeel			RBigToe			RSmallToe			RHeel			
		X1	Y1	Z1	X2	Y2	Z2	X3	Y3	Z3	X4	Y4	Z4	X5	Y5	Z5	X6	Y6	Z6	X7	Y7	Z7	X8	Y8	Z8	X9	Y9	Z9	X10	Y10	Z10	X11	Y11	Z11	X12	Y12	Z12	X13	Y13	Z13	X14	Y14	Z14	X15	Y15	Z15	X16	Y16	Z16	X17	Y17	Z17	X18	Y18	Z18	X19	Y19	Z19	X20	Y20	Z20	

1	0.0000000	0.0699600	1.2246100	-0.1633000	0.0581600	1.2078400	0.0940600	0.0493000	0.9303500	0.1418900	0.1146700	0.7005400	0.1214300	0.0773100	1.2266000	-0.3789800	0.0979600	0.9491700	-0.4465500	0.1195200	0.7051300	-0.4094100	0.0918100	0.6807600	-0.0852700	0.0875700	0.6790200	0.0445800	0.0217600	0.2864100	-0.0149400	-0.0312500	-0.1366900	0.0254100	0.0972500	0.6833900	-0.2446200	0.0046500	0.2817800	-0.2049100	-0.0420200	-0.1422500	-0.2476400	0.1286600	-0.2141600	-0.2546800	0.0970200	-0.2045300	-0.3239200	-0.0678900	-0.1824400	-0.2611400	0.1504300	-0.1954200	0.0459200	0.1260000	-0.1834200	0.0877600	-0.0648200	-0.1888600	0.0335800
2	0.0166667	0.0730100	1.2236200	-0.1582800	0.0606000	1.2079300	0.0971600	0.0494100	0.9291400	0.1418300	0.1187400	0.7004200	0.1146400	0.0790300	1.2242700	-0.3812300	0.0911500	0.9470900	-0.4318900	0.1195000	0.7049800	-0.4093200	0.0917500	0.6803400	-0.0850600	0.0876700	0.6770500	0.0442100	0.0231400	0.2865100	-0.0133800	-0.0312600	-0.1366900	0.0254100	0.0972400	0.6832900	-0.2445500	0.0046700	0.2816600	-0.2048800	-0.0420000	-0.1423000	-0.2476100	0.1287000	-0.2141200	-0.2547700	0.1020500	-0.2025900	-0.3294000	-0.0623100	-0.1799100	-0.2652400	0.1504400	-0.1970800	0.0445500	0.1216500	-0.1844600	0.0928800	-0.0648700	-0.1888000	0.0335700
3	0.0333333	0.0761400	1.2249800	-0.1531900	0.0605000	1.2080600	0.0975300	0.0490900	0.9303400	0.1415000	0.1201900	0.7005600	0.1121100	0.0841000	1.2259600	-0.3838600	0.0884400	0.9461400	-0.4198900	0.1193000	0.7048600	-0.4095400	0.0898200	0.6800600	-0.0881100	0.0877500	0.6758900	0.0436600	0.0240300	0.2869100	-0.0120300	-0.0312800	-0.1366800	0.0254300	0.0972000	0.6832300	-0.2445700	0.0047200	0.2814700	-0.2048600	-0.0419200	-0.1423700	-0.2475800	0.1286400	-0.2140400	-0.2548200	0.1038300	-0.2018700	-0.3313900	-0.0603200	-0.1771200	-0.2653700	0.1505400	-0.1999700	0.0421700	0.1198000	-0.1849800	0.0951500	-0.0646600	-0.1890400	0.0336300
4	0.0500000	0.0792800	1.2264000	-0.1480500	0.0601100	1.2070300	0.0970500	0.0491400	0.9320800	0.1415300	0.1199500	0.7006800	0.1126000	0.0907300	1.2288300	-0.3854600	0.0885600	0.9477700	-0.4156700	0.1195600	0.7048400	-0.4090000	0.0873300	0.6815900	-0.0933600	0.0876600	0.6791600	0.0431100	0.0252700	0.2886100	-0.0092100	-0.0312900	-0.1366600	0.0254400	0.0972000	0.6832000	-0.2446700	0.0046800	0.2815000	-0.2048400	-0.0419200	-0.1423500	-0.2475400	0.1286100	-0.2140200	-0.2548200	0.1035200	-0.2020000	-0.3310600	-0.0607200	-0.1757600	-0.2639400	0.1506300	-0.2016600	0.0407700	0.1200800	-0.1849200	0.0948400	-0.0646400	-0.1890500	0.0336500
5	0.0666667	0.0805700	1.2253900	-0.1459100	0.0614300	1.2045200	0.0950000	0.0492500	0.9321900	0.1417100	0.1196800	0.7007200	0.1129900	0.0937800	1.2292600	-0.3849000	0.0868700	0.9492000	-0.4134500	0.1207900	0.7049800	-0.4068200	0.0872100	0.6845700	-0.0956600	0.0876000	0.6833600	0.0422600	0.0248800	0.2894800	-0.0089400	-0.0312700	-0.1366600	0.0254400	0.0972200	0.6834800	-0.2448500	0.0046900	0.2814000	-0.2048100	-0.0419100	-0.1423400	-0.2475500	0.1286100	-0.2140400	-0.2547900	0.1035200	-0.2020300	-0.3310500	-0.0610800	-0.1755300	-0.2633900	0.1506400	-0.2016600	0.0407600	0.1219700	-0.1844600	0.0925800	-0.0647400	-0.1889300	0.0336400
6	0.0833333	0.0791300	1.2232300	-0.1484800	0.0641700	1.2029000	0.0905700	0.0490200	0.9302200	0.1424300	0.1194000	0.7006100	0.1123400	0.0923400	1.2270000	-0.3823700	0.0810000	0.9479700	-0.4055700	0.1217800	0.7051300	-0.4050300	0.0883200	0.6846700	-0.0935900	0.0876700	0.6822000	0.0418700	0.0218700	0.2879100	-0.0134100	-0.0312400	-0.1367000	0.0254300	0.0971400	0.6836000	-0.2447200	0.0048700	0.2809000	-0.2047700	-0.0419500	-0.1422900	-0.2475600	0.1285200	-0.2140400	-0.2547700	0.1035000	-0.2020100	-0.3310700	-0.0609900	-0.1757800	-0.2636300	0.1505700	-0.2013300	0.0409600	0.1246500	-0.1838000	0.0893500	-0.0647000	-0.1890200	0.0336500
7	0.1000000	0.0777200	1.2203500	-0.1508800	0.0672200	1.2025000	0.0854100	0.0490400	0.9281300	0.1423700	0.1195200	0.7004500	0.1122800	0.0904400	1.2242200	-0.3803200	0.0748200	0.9455000	-0.3962700	0.1219900	0.7051300	-0.4045700	0.0887800	0.6802500	-0.0887700	0.0881100	0.6767000	0.0427500	0.0195000	0.2860100	-0.0169700	-0.0311700	-0.1368000	0.0253900	0.0969300	0.6819000	-0.2435900	0.0047700	0.2810100	-0.2048200	-0.0419200	-0.1423400	-0.2475700	0.1284500	-0.2140600	-0.2547800	0.1016400	-0.2026800	-0.3291000	-0.0608300	-0.1774300	-0.2649200	0.1506800	-0.2014800	0.0408900	0.1262700	-0.1834900	0.0874300	-0.0645600	-0.1892300	0.0336400
8	0.1166667	0.0787900	1.2158600	-0.1480000	0.0700600	1.2007000	0.0808100	0.0506600	0.9278800	0.1393300	0.1217800	0.7005000	0.1156700	0.0892600	1.2201900	-0.3777700	0.0722600	0.9421400	-0.3918400	0.1231000	0.7050700	-0.4025300	0.0899900	0.6760700	-0.0848000	0.0881200	0.6732200	0.0429800	0.0197200	0.2856900	-0.0175800	-0.0311500	-0.1368100	0.0253300	0.0967800	0.6793000	-0.2421700	0.0047000	0.2811200	-0.2048500	-0.0419400	-0.1423100	-0.2475700	0.1283700	-0.2140100	-0.2547900	0.0984300	-0.2038600	-0.3256700	-0.0607200	-0.1798200	-0.2667400	0.1506700	-0.2015100	0.0408200	0.1262800	-0.1834700	0.0873600	-0.0645700	-0.1892100	0.0335900
9	0.1333333	0.0817600	1.2114700	-0.1426400	0.0722700	1.1981500	0.0763600	0.0533500	0.9274900	0.1350200	0.1249400	0.7007800	0.1206500	0.0886400	1.2178000	-0.3727900	0.0721100	0.9369400	-0.3905300	0.1258600	0.7052400	-0.3978000	0.0913900	0.6762900	-0.0882000	0.0858900	0.6729600	0.0394600	0.0214100	0.2861400	-0.0188200	-0.0310900	-0.1367900	0.0252300	0.0968600	0.6793200	-0.2423000	0.0047300	0.2811200	-0.2048600	-0.0419300	-0.1423300	-0.2475700	0.1284000	-0.2140500	-0.2547700	0.0966000	-0.2045900	-0.3236300	-0.0607400	-0.1798700	-0.2667500	0.1506500	-0.2014700	0.0408300	0.1260200	-0.1835400	0.0877000	-0.0646800	-0.1890800	0.0335500
10	0.1500000	0.0863700	1.2125600	-0.1405100	0.0750900	1.1984300	0.0713100	0.0548600	0.9253900	0.1332100	0.1249200	0.7008700	0.1206400	0.0934100	1.2185900	-0.3731700	0.0722500	0.9323400	-0.3895400	0.1286400	0.7057800	-0.3930900	0.0901000	0.6786800	-0.0958900	0.0828000	0.6734100	0.0348000	0.0228800	0.2862300	-0.0208300	-0.0311700	-0.1367900	0.0252700	0.0970200	0.6816200	-0.2437100	0.0047600	0.2812000	-0.2048600	-0.0420000	-0.1422400	-0.2475900	0.1282500	-0.2139300	-0.2547500	0.0965400	-0.2045700	-0.3235800	-0.0608900	-0.1774700	-0.2648400	0.1506000	-0.2014300	0.0408400	0.1260200	-0.1835200	0.0876900	-0.0648100	-0.1889400	0.0335000
11	0.1666667	0.0923600	1.2164700	-0.1405800	0.0815800	1.2007000	0.0658400	0.0548300	0.9239300	0.1337600	0.1219400	0.7002900	0.1153200	0.1050200	1.2197200	-0.3798800	0.0721400	0.9308900	-0.3889600	0.1296300	0.7061000	-0.3903200	0.0869600	0.6788900	-0.0974000	0.0826400	0.6746600	0.0353400	0.0233300	0.2859600	-0.0218400	-0.0314800	-0.1368600	0.0255800	0.0972500	0.6819700	-0.2445900	0.0047000	0.2814100	-0.2048500	-0.0420200	-0.1422400	-0.2476100	0.1282700	-0.2139900	-0.2547600	0.0968400	-0.2044700	-0.3239000	-0.0609100	-0.1755800	-0.2634700	0.1506400	-0.2015200	0.0407800	0.1261000	-0.1832900	0.0873900	-0.0648800	-0.1889200	0.0334500
12	0.1833333	0.0970800	1.2153000	-0.1382700	0.0901800	1.2004800	0.0618400	0.0546600	0.9238300	0.1342200	0.1197800	0.6984300	0.1122400	0.1154800	1.2193900	-0.3787000	0.0710700	0.9300900	-0.3879900	0.1296000	0.7043900	-0.3895800	0.0854700	0.6776700	-0.0934900	0.0847800	0.6759900	0.0393600	0.0228300	0.2859200	-0.0212200	-0.0311500	-0.1368400	0.0252100	0.0971100	0.6809000	-0.2437400	0.0047000	0.2814300	-0.2048400	-0.0420400	-0.1422400	-0.2476100	0.1282700	-0.2140800	-0.2548100	0.0968200	-0.2045000	-0.3239000	-0.0606100	-0.1755300	-0.2637800	0.1506800	-0.2016300	0.0406900	0.1261300	-0.1833200	0.0873900	-0.0647700	-0.1890500	0.0334400
13	0.2000000	0.0984200	1.2088800	-0.1347300	0.0952800	1.1975500	0.0599600	0.0548100	0.9226200	0.1338500	0.1179200	0.6974500	0.1139100	0.1205000	1.2167900	-0.3699000	0.0706000	0.9280300	-0.3868000	0.1311300	0.7002400	-0.3922000	0.0855900	0.6769900	-0.0915900	0.0836500	0.6764700	0.0381600	0.0212900	0.2872200	-0.0181300	-0.0293700	-0.1366000	0.0232600	0.0952500	0.6819200	-0.2393000	0.0047100	0.2815600	-0.2049600	-0.0420200	-0.1422900	-0.2476000	0.1282900	-0.2140800	-0.2547800	0.0967700	-0.2045400	-0.3238600	-0.0608400	-0.1772600	-0.2647700	0.1506900	-0.2015600	0.0407400	0.1260700	-0.1847500	0.0888300	-0.0646600	-0.1891400	0.0334700
14	0.2166667	0.0980900	1.2028400	-0.1344900	0.0966700	1.1939300	0.0569500	0.0547200	0.9200300	0.1329100	0.1152500	0.6982800	0.1137700	0.1265300	1.2119200	-0.3674600	0.0763200	0.9253700	-0.3894800	0.1345100	0.6965200	-0.3969300	0.0836000	0.6756900	-0.0949200	0.0758400	0.6767200	0.0271300	0.0198600	0.2894300	-0.0143400	-0.0281100	-0.1364400	0.0219100	0.0918000	0.6831700	-0.2334500	0.0047000	0.2816100	-0.2050000	-0.0420100	-0.1423200	-0.2476000	0.1282100	-0.2137400	-0.2545800	0.0967700	-0.2045100	-0.3238900	-0.0625500	-0.1799700	-0.2649000	0.1507000	-0.2012600	0.0409800	0.1259900	-0.1871800	0.0912700	-0.0646300	-0.1891800	0.0335200
15	0.2333333	0.0997900	1.1982300	-0.1379300	0.0984600	1.1903200	0.0524500	0.0548500	0.9182700	0.1327700	0.1145500	0.6987000	0.1094400	0.1369200	1.2055200	-0.3721100	0.0881300	0.9232000	-0.3976300	0.1379600	0.6954700	-0.3975700	0.0792500	0.6736400	-0.1019300	0.0658700	0.6747800	0.0114600	0.0195500	0.2906900	-0.0130300	-0.0293000	-0.1366600	0.0233000	0.0887400	0.6807000	-0.2334400	0.0044000	0.2813000	-0.2044600	-0.0420100	-0.1423000	-0.2476000	0.1282800	-0.2140200	-0.2547900	0.0967900	-0.2045200	-0.3239000	-0.0643200	-0.1817400	-0.2643300	0.1508000	-0.2016200	0.0407400	0.1259600	-0.1886900	0.0927700	-0.0645700	-0.1892700	0.0335600
